<svg width="4354" height="1239" viewBox="0 0 4354 1239" fill="none" xmlns="http://www.w3.org/2000/svg">
<path d="M783.036 881.706C783.036 917.038 790.78 946.078 806.268 968.826C821.756 991.09 847.166 1002.22 882.498 1002.22C897.018 1002.22 912.022 1000.29 927.51 996.414C943.482 992.542 963.084 986.008 986.316 976.812L1013.18 1052.32C987.042 1063.93 962.842 1072.16 940.578 1077C918.798 1081.84 897.744 1084.26 877.416 1084.26C836.76 1084.26 802.638 1075.55 775.05 1058.12C747.946 1040.7 727.618 1016.74 714.066 986.25C700.514 955.758 693.738 920.91 693.738 881.706V777.888C693.738 738.684 700.514 703.836 714.066 673.344C727.618 642.852 747.946 619.136 775.05 602.196C802.638 584.772 836.76 576.06 877.416 576.06C897.26 576.06 917.83 578.48 939.126 583.32C960.422 587.676 983.654 595.42 1008.82 606.552L981.96 683.508C959.696 674.312 941.062 667.778 926.058 663.906C911.054 660.034 896.534 658.098 882.498 658.098C847.166 658.098 821.756 669.23 806.268 691.494C790.78 713.758 783.036 742.556 783.036 777.888V881.706ZM2713.84 1003.67C2769.99 1003.67 2798.06 982.862 2798.06 941.238C2798.06 924.298 2793.7 910.988 2784.99 901.308C2776.76 891.628 2761.28 883.158 2738.53 875.898L2679 856.296C2607.85 833.064 2572.27 786.358 2572.27 716.178C2572.27 675.522 2584.86 642.126 2610.03 615.99C2635.68 589.37 2675.61 576.06 2729.82 576.06C2752.56 576.06 2775.07 578.722 2797.33 584.046C2819.6 588.886 2843.31 596.872 2868.48 608.004L2841.62 682.782C2818.39 673.586 2798.54 667.052 2782.09 663.18C2766.12 658.824 2749.66 656.646 2732.72 656.646C2710.46 656.646 2692.79 660.76 2679.72 668.988C2667.14 676.732 2660.85 691.01 2660.85 711.822C2660.85 727.31 2665.2 740.136 2673.91 750.3C2683.11 759.98 2698.11 768.208 2718.93 774.984L2778.46 794.586C2814.27 806.686 2841.14 824.352 2859.04 847.584C2877.44 870.332 2886.63 900.582 2886.63 938.334C2886.63 981.894 2872.84 1017.23 2845.25 1044.33C2817.66 1070.95 2774.34 1084.26 2715.3 1084.26C2692.06 1084.26 2667.86 1081.6 2642.7 1076.27C2618.01 1070.47 2590.91 1060.79 2561.38 1047.23L2588.25 972.456C2615.35 984.072 2638.34 992.3 2657.22 997.14C2676.58 1001.5 2695.45 1003.67 2713.84 1003.67ZM3244.97 1077L3214.48 980.442H3045.32L3014.83 1077H2928.43L3093.24 583.32H3170.19L3335.72 1077H3244.97ZM3092.51 829.434L3070 900.582H3189.07L3166.56 829.434L3130.26 704.562L3092.51 829.434ZM3513.29 583.32L3651.23 920.91L3788.44 583.32H3883.55V1077H3800.06V888.24L3810.95 715.452L3688.26 1018.92H3610.57L3490.78 714.726L3501.67 888.24V1077H3418.18V583.32H3513.29Z" fill="white"/>
<path d="M1366.87 1077L1336.38 980.442H1167.22L1136.73 1077H1050.33L1215.14 583.32H1292.09L1457.62 1077H1366.87ZM1214.41 829.434L1191.9 900.582H1310.97L1288.46 829.434L1252.16 704.562L1214.41 829.434ZM1635.19 583.32L1773.13 920.91L1910.34 583.32H2005.45V1077H1921.96V888.24L1932.85 715.452L1810.16 1018.92H1732.47L1612.68 714.726L1623.57 888.24V1077H1540.08V583.32H1635.19ZM2491.22 777.888V881.706C2491.22 944.626 2475.49 994.236 2444.03 1030.54C2412.57 1066.35 2366.59 1084.26 2306.09 1084.26C2245.1 1084.26 2198.88 1066.35 2167.42 1030.54C2136.45 994.236 2120.96 944.626 2120.96 881.706V777.888C2120.96 714.968 2136.45 665.6 2167.42 629.784C2198.88 593.968 2245.1 576.06 2306.09 576.06C2366.59 576.06 2412.57 593.968 2444.03 629.784C2475.49 665.6 2491.22 714.968 2491.22 777.888ZM2401.92 777.888C2401.92 738.2 2394.18 708.434 2378.69 688.59C2363.2 668.262 2339 658.098 2306.09 658.098C2273.18 658.098 2248.98 668.262 2233.49 688.59C2218 708.434 2210.26 738.2 2210.26 777.888V881.706C2210.26 921.394 2218 951.402 2233.49 971.73C2248.98 992.058 2273.18 1002.22 2306.09 1002.22C2339 1002.22 2363.2 992.058 2378.69 971.73C2394.18 951.402 2401.92 921.394 2401.92 881.706V777.888Z" fill="#DD4444"/>
<path d="M1276.6 655.368C981.897 382.868 1387.24 -204.162 1778.5 272" stroke="#DD4444" stroke-width="81"/>
<path d="M2284.3 613.366C2579 340.867 2170.26 -256.773 1779 219.389" stroke="#DD4444" stroke-width="81"/>
<path d="M356.299 629.622C335.022 690.51 317.5 787.999 336 815.999C346 840.499 533.799 564.379 461 538.5C410.34 520.491 376.467 571.908 356.299 629.622ZM356.299 629.622C404.553 508.598 507.776 537.852 457.201 520.5C361.601 487.7 241 622.499 213 669.999C203.014 686.939 284.358 664.137 356.299 629.622ZM205.506 548C276.351 455.786 385.5 444.5 436.5 488C487.5 531.5 410 494 326 529C255.324 536.963 198.251 558.676 205.506 548ZM612 348C481.5 361.901 449.201 440.999 464.201 488L571.5 415.5C571.5 415.5 742.5 334.098 612 348ZM473 512.5C472.833 468 612 389 729 425C741.976 428.992 662 475.436 588 505.804C523 475.5 466.569 545.803 473 512.5ZM761 606.213C698.299 622.5 445.81 605.846 476.5 538.5C525.402 431.191 819.799 606.213 761 606.213ZM557 1078.5C560.5 1104 659 1111.46 659 1085C659 870.5 569.5 600.5 538 601.5C512.8 602.3 482 571 482 596.5C563.5 731.5 560.5 1039.5 557 1078.5Z" stroke="white" stroke-width="26"/>
<path d="M417.5 723C417.5 723 391 693.667 397 699C406 707 426 710.5 426 710.5M466.5 639.5C466.5 639.5 449.637 623.775 439 620C408 609 469 625 469 625M304 656.5C304 656.5 306.435 610.493 310 620C314.5 632 319 651.5 319 651.5M273 536C273 536 289 499 282.5 517C276 535 289 536 289 536M595 598C595 598 582.955 573.292 588 578C595.5 585 607 602.5 607 602.5M685.5 613C685.5 613 692.165 594.132 689 588C681 572.5 702.5 608.5 702.5 608.5M656.5 469C656.5 469 645.476 455.141 635.5 451C609 440 674 459 674 459M3823.5 772.5C3950.5 467.5 4250 628 4274 766C4363.5 766 4352.5 896 4274 889.5C4246.5 1071 3924 1174.5 3823.5 881.5M3910 837C3910 789.5 3985 769 3990.5 834.5M4116 834.5C4111.5 791 4194.5 776 4194.5 834.5M3983 919.5C4011 969 4090.5 971 4119 916.5M3899.5 534C3896.5 595 3961 587.5 3970 604M3983 523.5C3970 593 4049 564.5 4096 622C4168.06 710.16 4054 810 3975.5 688.5" stroke="white" stroke-width="32"/>
<path d="M545.5 868C512.833 890.333 450.659 919.109 406 897C355.5 872 309.5 879 270.5 907.5C250.5 925.5 196 937.5 156.5 907.5C132.526 889.292 79.5 903.5 40.5 933.459M40.5 933.459C33.043 937.69 6.5 952 21 944.5L40.5 933.459ZM125.5 1010.5C98.5 1003.5 114.912 1001.06 125.5 1010.5ZM125.5 1010.5C144 1027 177 1021 201 1004C225 987 255 988 270.5 1004C286 1020 322 1037 343 1010.5C364 984 402.649 993.685 416.5 1004C440 1021.5 447 1041.5 503.5 1004M503.5 1004C560 966.5 574.5 972 537 983.5L503.5 1004ZM638 890.5C647.5 896.667 687.5 901.4 713.5 879C739.5 856.6 758 861.5 761.5 861.5" stroke="white" stroke-width="32"/>
</svg>
